<svg id="visual" viewBox="0 0 900 600" width="900" height="600" xmlns="http://www.w3.org/2000/svg" xmlns:xlink="http://www.w3.org/1999/xlink" version="1.1"><rect x="0" y="0" width="900" height="600" fill="#001220"></rect><defs><linearGradient id="grad1_0" x1="33.3%" y1="0%" x2="100%" y2="100%"><stop offset="20%" stop-color="#001220" stop-opacity="1"></stop><stop offset="80%" stop-color="#001220" stop-opacity="1"></stop></linearGradient></defs><defs><linearGradient id="grad2_0" x1="0%" y1="0%" x2="66.7%" y2="100%"><stop offset="20%" stop-color="#001220" stop-opacity="1"></stop><stop offset="80%" stop-color="#001220" stop-opacity="1"></stop></linearGradient></defs><g transform="translate(900, 0)"><path d="M0 486.7C-23.9 450.2 -47.8 413.6 -82.9 416.8C-118 420.1 -164.3 463.2 -186.3 449.7C-208.3 436.2 -206.1 366.2 -226.7 339.2C-247.3 312.3 -290.7 328.6 -323.1 323.1C-355.6 317.7 -377 290.6 -393.3 262.8C-409.5 234.9 -420.6 206.3 -427.8 177.2C-434.9 148.1 -438.1 118.6 -447.2 89C-456.4 59.4 -471.6 29.7 -486.7 0L0 0Z" fill="#0c0c07"></path></g><g transform="translate(0, 600)"><path d="M0 -486.7C28 -463.6 56 -440.4 86.2 -433.5C116.5 -426.7 148.9 -436.2 177.2 -427.8C205.5 -419.3 229.6 -393 242.2 -362.5C254.8 -332 255.9 -297.4 285.7 -285.7C315.4 -274 373.8 -285.2 404.7 -270.4C435.6 -255.6 439 -214.8 431.5 -178.7C423.9 -142.6 405.5 -111.1 412.9 -82.1C420.3 -53.1 453.5 -26.6 486.7 0L0 0Z" fill="#0c0c07"></path></g></svg>